<svg width="53" height="50" viewBox="0 0 53 50" fill="none" xmlns="http://www.w3.org/2000/svg">
<path d="M5.31082 32.2619C7.13816 37.8859 11.0186 42.6142 16.178 45.5037C21.3375 48.3931 27.3966 49.2312 33.1466 47.8507C38.8966 46.4702 43.9149 42.9727 47.2002 38.0559C50.4855 33.1391 51.7964 27.1644 50.8713 21.3238C49.9463 15.4832 46.8533 10.206 42.2094 6.54505C37.5654 2.88409 31.712 1.10848 25.8169 1.57244C19.9217 2.0364 14.4181 4.70583 10.4041 9.04818C6.39004 13.3905 4.16065 19.0866 4.16064 25" stroke="url(#paint0_radial_407_1193)" stroke-width="2" stroke-linecap="round" stroke-linejoin="round"/>
<path d="M5.31082 32.2619C7.13816 37.8859 11.0186 42.6142 16.178 45.5037C21.3375 48.3931 27.3966 49.2312 33.1466 47.8507C38.8966 46.4702 43.9149 42.9727 47.2002 38.0559C50.4855 33.1391 51.7964 27.1644 50.8713 21.3238C49.9463 15.4832 46.8533 10.206 42.2094 6.54505C37.5654 2.88409 31.712 1.10848 25.8169 1.57244C19.9217 2.0364 14.4181 4.70583 10.4041 9.04818C6.39004 13.3905 4.16065 19.0866 4.16064 25" stroke="url(#paint1_radial_407_1193)" stroke-width="2" stroke-linecap="round" stroke-linejoin="round"/>
<g clip-path="url(#clip0_407_1193)">
<path d="M23.1618 24.5C23.1618 22.2909 24.9521 20.4997 27.1611 20.4997C29.3702 20.4997 31.1615 22.2909 31.1615 24.5C31.1615 26.7091 29.3702 28.5003 27.1611 28.5003C24.9521 28.5003 23.1618 26.7091 23.1618 24.5ZM20.9993 24.5C20.9993 27.9032 23.7579 30.6619 27.1611 30.6619C30.5643 30.6619 33.323 27.9032 33.323 24.5C33.323 21.0968 30.5643 18.3381 27.1611 18.3381C23.7579 18.3381 20.9993 21.0968 20.9993 24.5ZM32.1269 18.0938C32.1268 18.3786 32.2112 18.6571 32.3693 18.8939C32.5274 19.1308 32.7522 19.3155 33.0153 19.4246C33.2784 19.5337 33.5679 19.5623 33.8473 19.5068C34.1266 19.4514 34.3833 19.3143 34.5848 19.113C34.7862 18.9117 34.9235 18.6552 34.9791 18.3759C35.0348 18.0966 35.0064 17.807 34.8975 17.5439C34.7886 17.2807 34.6042 17.0557 34.3674 16.8974C34.1307 16.7391 33.8523 16.6545 33.5675 16.6544H33.5669C33.1852 16.6546 32.8191 16.8063 32.5491 17.0762C32.2791 17.346 32.1273 17.7121 32.1269 18.0938ZM22.3131 34.2677C21.1432 34.2144 20.5073 34.0196 20.0847 33.8549C19.5244 33.6368 19.1247 33.377 18.7044 32.9573C18.2841 32.5376 18.0239 32.1382 17.8068 31.578C17.6421 31.1556 17.4472 30.5195 17.394 29.3495C17.3358 28.0846 17.3242 27.7047 17.3242 24.5001C17.3242 21.2955 17.3368 20.9166 17.394 19.6507C17.4473 18.4807 17.6436 17.8459 17.8068 17.4222C18.0249 16.862 18.2847 16.4622 18.7044 16.0419C19.1241 15.6216 19.5235 15.3615 20.0847 15.1443C20.5071 14.9796 21.1432 14.7847 22.3131 14.7315C23.578 14.6733 23.958 14.6617 27.1611 14.6617C30.3643 14.6617 30.7446 14.6743 32.0106 14.7315C33.1805 14.7848 33.8154 14.9811 34.239 15.1443C34.7993 15.3615 35.199 15.6222 35.6193 16.0419C36.0396 16.4616 36.2988 16.862 36.5169 17.4222C36.6816 17.8446 36.8765 18.4807 36.9297 19.6507C36.9879 20.9166 36.9995 21.2955 36.9995 24.5001C36.9995 27.7047 36.9879 28.0836 36.9297 29.3495C36.8764 30.5195 36.6806 31.1554 36.5169 31.578C36.2988 32.1382 36.039 32.538 35.6193 32.9573C35.1996 33.3766 34.7993 33.6368 34.239 33.8549C33.8166 34.0196 33.1805 34.2145 32.0106 34.2677C30.7457 34.3259 30.3657 34.3375 27.1611 34.3375C23.9566 34.3375 23.5776 34.3259 22.3131 34.2677ZM22.2138 12.5727C20.9363 12.6308 20.0634 12.8334 19.301 13.13C18.5115 13.4364 17.8432 13.8474 17.1753 14.5142C16.5074 15.181 16.0975 15.8504 15.7912 16.6399C15.4945 17.4027 15.292 18.2752 15.2338 19.5526C15.1747 20.8321 15.1611 21.2412 15.1611 24.5C15.1611 27.7588 15.1747 28.1679 15.2338 29.4474C15.292 30.7249 15.4945 31.5973 15.7912 32.3601C16.0975 33.1491 16.5075 33.8193 17.1753 34.4858C17.8431 35.1524 18.5115 35.5628 19.301 35.87C20.0648 36.1666 20.9363 36.3692 22.2138 36.4273C23.4939 36.4855 23.9023 36.5 27.1611 36.5C30.4199 36.5 30.829 36.4865 32.1085 36.4273C33.3861 36.3692 34.2584 36.1666 35.0212 35.87C35.8103 35.5628 36.4791 35.1526 37.147 34.4858C37.8148 33.819 38.2239 33.1491 38.5311 32.3601C38.8277 31.5973 39.0312 30.7248 39.0885 29.4474C39.1466 28.1669 39.1602 27.7588 39.1602 24.5C39.1602 21.2412 39.1466 20.8321 39.0885 19.5526C39.0303 18.2751 38.8277 17.4022 38.5311 16.6399C38.2239 15.8509 37.8138 15.182 37.147 14.5142C36.4801 13.8463 35.8103 13.4364 35.0222 13.13C34.2584 12.8334 33.386 12.6299 32.1095 12.5727C30.83 12.5145 30.4209 12.5 27.1621 12.5C23.9033 12.5 23.4939 12.5135 22.2138 12.5727Z" fill="url(#paint2_radial_407_1193)"/>
<path d="M23.1618 24.5C23.1618 22.2909 24.9521 20.4997 27.1611 20.4997C29.3702 20.4997 31.1615 22.2909 31.1615 24.5C31.1615 26.7091 29.3702 28.5003 27.1611 28.5003C24.9521 28.5003 23.1618 26.7091 23.1618 24.5ZM20.9993 24.5C20.9993 27.9032 23.7579 30.6619 27.1611 30.6619C30.5643 30.6619 33.323 27.9032 33.323 24.5C33.323 21.0968 30.5643 18.3381 27.1611 18.3381C23.7579 18.3381 20.9993 21.0968 20.9993 24.5ZM32.1269 18.0938C32.1268 18.3786 32.2112 18.6571 32.3693 18.8939C32.5274 19.1308 32.7522 19.3155 33.0153 19.4246C33.2784 19.5337 33.5679 19.5623 33.8473 19.5068C34.1266 19.4514 34.3833 19.3143 34.5848 19.113C34.7862 18.9117 34.9235 18.6552 34.9791 18.3759C35.0348 18.0966 35.0064 17.807 34.8975 17.5439C34.7886 17.2807 34.6042 17.0557 34.3674 16.8974C34.1307 16.7391 33.8523 16.6545 33.5675 16.6544H33.5669C33.1852 16.6546 32.8191 16.8063 32.5491 17.0762C32.2791 17.346 32.1273 17.7121 32.1269 18.0938ZM22.3131 34.2677C21.1432 34.2144 20.5073 34.0196 20.0847 33.8549C19.5244 33.6368 19.1247 33.377 18.7044 32.9573C18.2841 32.5376 18.0239 32.1382 17.8068 31.578C17.6421 31.1556 17.4472 30.5195 17.394 29.3495C17.3358 28.0846 17.3242 27.7047 17.3242 24.5001C17.3242 21.2955 17.3368 20.9166 17.394 19.6507C17.4473 18.4807 17.6436 17.8459 17.8068 17.4222C18.0249 16.862 18.2847 16.4622 18.7044 16.0419C19.1241 15.6216 19.5235 15.3615 20.0847 15.1443C20.5071 14.9796 21.1432 14.7847 22.3131 14.7315C23.578 14.6733 23.958 14.6617 27.1611 14.6617C30.3643 14.6617 30.7446 14.6743 32.0106 14.7315C33.1805 14.7848 33.8154 14.9811 34.239 15.1443C34.7993 15.3615 35.199 15.6222 35.6193 16.0419C36.0396 16.4616 36.2988 16.862 36.5169 17.4222C36.6816 17.8446 36.8765 18.4807 36.9297 19.6507C36.9879 20.9166 36.9995 21.2955 36.9995 24.5001C36.9995 27.7047 36.9879 28.0836 36.9297 29.3495C36.8764 30.5195 36.6806 31.1554 36.5169 31.578C36.2988 32.1382 36.039 32.538 35.6193 32.9573C35.1996 33.3766 34.7993 33.6368 34.239 33.8549C33.8166 34.0196 33.1805 34.2145 32.0106 34.2677C30.7457 34.3259 30.3657 34.3375 27.1611 34.3375C23.9566 34.3375 23.5776 34.3259 22.3131 34.2677ZM22.2138 12.5727C20.9363 12.6308 20.0634 12.8334 19.301 13.13C18.5115 13.4364 17.8432 13.8474 17.1753 14.5142C16.5074 15.181 16.0975 15.8504 15.7912 16.6399C15.4945 17.4027 15.292 18.2752 15.2338 19.5526C15.1747 20.8321 15.1611 21.2412 15.1611 24.5C15.1611 27.7588 15.1747 28.1679 15.2338 29.4474C15.292 30.7249 15.4945 31.5973 15.7912 32.3601C16.0975 33.1491 16.5075 33.8193 17.1753 34.4858C17.8431 35.1524 18.5115 35.5628 19.301 35.87C20.0648 36.1666 20.9363 36.3692 22.2138 36.4273C23.4939 36.4855 23.9023 36.5 27.1611 36.5C30.4199 36.5 30.829 36.4865 32.1085 36.4273C33.3861 36.3692 34.2584 36.1666 35.0212 35.87C35.8103 35.5628 36.4791 35.1526 37.147 34.4858C37.8148 33.819 38.2239 33.1491 38.5311 32.3601C38.8277 31.5973 39.0312 30.7248 39.0885 29.4474C39.1466 28.1669 39.1602 27.7588 39.1602 24.5C39.1602 21.2412 39.1466 20.8321 39.0885 19.5526C39.0303 18.2751 38.8277 17.4022 38.5311 16.6399C38.2239 15.8509 37.8138 15.182 37.147 14.5142C36.4801 13.8463 35.8103 13.4364 35.0222 13.13C34.2584 12.8334 33.386 12.6299 32.1095 12.5727C30.83 12.5145 30.4209 12.5 27.1621 12.5C23.9033 12.5 23.4939 12.5135 22.2138 12.5727Z" fill="url(#paint3_radial_407_1193)"/>
</g>
<circle cx="5.16064" cy="33.5" r="5" fill="#F6832D"/>
<defs>
<radialGradient id="paint0_radial_407_1193" cx="0" cy="0" r="1" gradientUnits="userSpaceOnUse" gradientTransform="translate(2.34815 52.4219) scale(58.3594)">
<stop offset="0.178235" stop-color="#FA8F21"/>
<stop offset="0.782412" stop-color="#D82D7E"/>
</radialGradient>
<radialGradient id="paint1_radial_407_1193" cx="0" cy="0" r="1" gradientUnits="userSpaceOnUse" gradientTransform="translate(27.6606 51.0156) scale(46.4062)">
<stop offset="0.524572" stop-color="#8C3AAA" stop-opacity="0"/>
<stop offset="1" stop-color="#8C3AAA"/>
</radialGradient>
<radialGradient id="paint2_radial_407_1193" cx="0" cy="0" r="1" gradientUnits="userSpaceOnUse" gradientTransform="translate(18.3497 36.6134) scale(31.33 31.33)">
<stop offset="0.09" stop-color="#FA8F21"/>
<stop offset="0.78" stop-color="#D82D7E"/>
</radialGradient>
<radialGradient id="paint3_radial_407_1193" cx="0" cy="0" r="1" gradientUnits="userSpaceOnUse" gradientTransform="translate(29.7161 37.6886) scale(24.6924)">
<stop offset="0.64" stop-color="#8C3AAA" stop-opacity="0"/>
<stop offset="1" stop-color="#8C3AAA"/>
</radialGradient>
<clipPath id="clip0_407_1193">
<rect width="24" height="24" fill="white" transform="translate(15.1606 12.5)"/>
</clipPath>
</defs>
</svg>
