<svg width="53" height="50" viewBox="0 0 53 50" fill="none" xmlns="http://www.w3.org/2000/svg">
<path d="M5.31082 32.2619C7.13816 37.8859 11.0186 42.6142 16.178 45.5037C21.3375 48.3931 27.3966 49.2312 33.1466 47.8507C38.8966 46.4702 43.9149 42.9727 47.2002 38.0559C50.4855 33.1391 51.7964 27.1644 50.8713 21.3238C49.9463 15.4832 46.8533 10.206 42.2094 6.54505C37.5654 2.88409 31.712 1.10848 25.8169 1.57244C19.9217 2.0364 14.4181 4.70583 10.4041 9.04818C6.39004 13.3905 4.16065 19.0866 4.16064 25" stroke="#34AADF" stroke-width="2" stroke-linecap="round" stroke-linejoin="round"/>
<g clip-path="url(#clip0_407_1199)">
<path d="M27.1606 36.5C33.7881 36.5 39.1606 31.1274 39.1606 24.5C39.1606 17.8726 33.7881 12.5 27.1606 12.5C20.5332 12.5 15.1606 17.8726 15.1606 24.5C15.1606 31.1274 20.5332 36.5 27.1606 36.5Z" fill="#34AADF"/>
<path d="M20.155 24.3969C20.155 24.3969 26.155 21.9345 28.2359 21.0674C29.0336 20.7206 31.7388 19.6107 31.7388 19.6107C31.7388 19.6107 32.9873 19.1252 32.8833 20.3044C32.8486 20.79 32.5711 22.4893 32.2937 24.3275C31.8775 26.9287 31.4266 29.7726 31.4266 29.7726C31.4266 29.7726 31.3572 30.5703 30.7677 30.709C30.1781 30.8477 29.2069 30.2235 29.0336 30.0847C28.8948 29.9807 26.4324 28.42 25.5307 27.657C25.2879 27.4489 25.0104 27.0327 25.5653 26.5472C26.8139 25.4027 28.3052 23.9807 29.2069 23.079C29.6232 22.6628 30.0393 21.6917 28.3052 22.8708C25.8428 24.5703 23.4151 26.1657 23.4151 26.1657C23.4151 26.1657 22.8601 26.5125 21.8197 26.2003C20.7792 25.8882 19.5653 25.472 19.5653 25.472C19.5653 25.472 18.733 24.9518 20.155 24.3969Z" fill="white"/>
</g>
<circle cx="5.16064" cy="33.5" r="5" fill="#34AADF"/>
<defs>
<clipPath id="clip0_407_1199">
<rect width="24" height="24" fill="white" transform="translate(15.1606 12.5)"/>
</clipPath>
</defs>
</svg>
