<svg width="53" height="50" viewBox="0 0 53 50" fill="none" xmlns="http://www.w3.org/2000/svg">
<path d="M5.31033 32.2619C7.13768 37.8859 11.0181 42.6142 16.1776 45.5037C21.337 48.3931 27.3961 49.2312 33.1461 47.8507C38.8962 46.4702 43.9144 42.9727 47.1997 38.0559C50.485 33.1391 51.7959 27.1644 50.8708 21.3238C49.9458 15.4832 46.8528 10.206 42.2089 6.54505C37.565 2.88409 31.7116 1.10848 25.8164 1.57244C19.9212 2.0364 14.4176 4.70583 10.4036 9.04818C6.38955 13.3905 4.16016 19.0866 4.16016 25" stroke="#1DA1F2" stroke-width="2" stroke-linecap="round" stroke-linejoin="round"/>
<g clip-path="url(#clip0_407_1187)">
<path d="M40.1602 16.8095C39.2775 17.2006 38.3294 17.4648 37.3327 17.5843C38.3495 16.9755 39.1296 16.0093 39.4974 14.8593C38.5461 15.4238 37.4923 15.8339 36.3709 16.0537C35.4724 15.0983 34.1934 14.5 32.7771 14.5C30.0585 14.5 27.8536 16.7049 27.8536 19.4256C27.8538 19.8026 27.8963 20.1785 27.9805 20.546C23.8868 20.3398 20.2602 18.3791 17.8313 15.4005C17.4085 16.1299 17.1654 16.9755 17.1654 17.876C17.1654 19.5841 18.0353 21.0924 19.3554 21.975C18.5736 21.9501 17.8089 21.7388 17.1252 21.3588V21.4222C17.1252 23.8078 18.8217 25.7981 21.0752 26.2505C20.6523 26.3646 20.2162 26.4222 19.7782 26.4218C19.4672 26.422 19.1569 26.393 18.8513 26.3351C19.4781 28.2905 21.2961 29.7153 23.4513 29.7534C21.7654 31.0746 19.6419 31.8621 17.3355 31.8621C16.9381 31.8621 16.546 31.8388 16.1602 31.7933C18.3397 33.1918 20.9272 34.0056 23.7071 34.0056C32.7654 34.0056 37.7175 26.5031 37.7175 19.9963C37.7175 19.7849 37.7121 19.5714 37.7026 19.36C38.6645 18.6645 39.4995 17.7988 40.158 16.8127L40.1602 16.8095Z" fill="#1DA1F2"/>
</g>
<circle cx="5.48193" cy="33" r="5" fill="#1DA1F2"/>
<defs>
<clipPath id="clip0_407_1187">
<rect width="24" height="24" fill="white" transform="translate(15.4819 12)"/>
</clipPath>
</defs>
</svg>
