<svg width="53" height="50" viewBox="0 0 53 50" fill="none" xmlns="http://www.w3.org/2000/svg">
<path d="M5.63211 32.2619C7.45945 37.8859 11.3399 42.6142 16.4993 45.5037C21.6588 48.3931 27.7179 49.2312 33.4679 47.8507C39.2179 46.4702 44.2362 42.9727 47.5215 38.0559C50.8068 33.1391 52.1177 27.1644 51.1926 21.3238C50.2675 15.4832 47.1745 10.206 42.5306 6.54505C37.8867 2.88409 32.0333 1.10848 26.1381 1.57244C20.243 2.0364 14.7394 4.70583 10.7254 9.04818C6.71132 13.3905 4.48193 19.0866 4.48193 25" stroke="#FF0000" stroke-width="2" stroke-linecap="round" stroke-linejoin="round"/>
<g clip-path="url(#clip0_407_1181)">
<path d="M28.0136 33.8299L23.0898 33.7399C21.4955 33.7085 19.8973 33.7711 18.3343 33.446C15.9567 32.9603 15.7882 30.5787 15.612 28.5809C15.3691 25.7724 15.4631 22.9129 15.9215 20.1278C16.1802 18.565 17.1984 17.6325 18.7731 17.531C24.0886 17.1628 29.4396 17.2064 34.7434 17.3782C35.3035 17.394 35.8675 17.4801 36.4198 17.578C39.1463 18.056 39.2128 20.7549 39.3895 23.0268C39.5657 25.3223 39.4913 27.6295 39.1544 29.9092C38.8842 31.7968 38.3671 33.3798 36.1848 33.5326C33.4505 33.7324 30.779 33.8933 28.0371 33.8421C28.0372 33.8299 28.0215 33.8299 28.0136 33.8299ZM25.1189 29.051C27.1794 27.868 29.2005 26.7047 31.2493 25.5295C29.1849 24.3465 27.1676 23.1831 25.1189 22.008V29.051Z" fill="#FF0000"/>
</g>
<circle cx="5.48193" cy="33.5" r="5" fill="#FF0000"/>
<defs>
<clipPath id="clip0_407_1181">
<rect width="24" height="23.9955" fill="white" transform="translate(15.4819 13.5)"/>
</clipPath>
</defs>
</svg>
